<?xml version="1.0" standalone="no"?>
<!DOCTYPE svg PUBLIC "-//W3C//DTD SVG 20010904//EN"
 "http://www.w3.org/TR/2001/REC-SVG-20010904/DTD/svg10.dtd">
<svg version="1.0" xmlns="http://www.w3.org/2000/svg"
 width="214.000000pt" height="189.000000pt" viewBox="0 0 214.000000 189.000000"
 preserveAspectRatio="xMidYMid meet">
<metadata>
Created by potrace 1.10, written by Peter Selinger 2001-2011
</metadata>
<g transform="translate(0.000000,189.000000) scale(0.100000,-0.100000)"
fill="#000000" stroke="none">
<path d="M1035 1823 c-11 -2 -29 -8 -40 -13 -11 -5 -152 -57 -314 -114 -161
-57 -297 -110 -301 -116 -9 -15 -7 -40 35 -375 14 -113 35 -286 40 -335 12
-115 27 -175 48 -197 11 -13 24 -23 29 -23 5 0 71 -35 146 -77 136 -76 288
-159 348 -190 l31 -15 169 92 c93 51 194 106 224 123 148 80 180 99 187 110 3
6 -9 2 -28 -10 -19 -11 -150 -84 -292 -162 l-257 -142 -258 142 c-141 78 -269
148 -283 157 -23 13 -28 24 -34 76 -9 87 -15 132 -25 211 -5 39 -12 93 -15
120 -3 28 -8 70 -11 95 -11 91 -13 106 -19 165 -4 33 -9 71 -11 85 -2 14 -7
52 -10 85 l-6 60 318 113 c176 62 328 115 340 118 12 3 162 -43 359 -110 186
-64 340 -116 342 -116 2 0 1 -4 -2 -10 -3 -5 -1 -10 4 -10 6 0 11 5 11 11 0
13 -29 25 -258 103 -106 36 -207 72 -225 79 -25 11 -139 49 -212 72 -5 1 -19
1 -30 -2z"/>
<path d="M1062 1728 c-1 -40 -6 -68 -12 -68 -9 0 -64 -107 -121 -237 -7 -18
-18 -33 -22 -33 -5 0 -6 -4 -3 -9 3 -4 -3 -26 -13 -47 -11 -22 -51 -111 -91
-199 -39 -88 -80 -178 -90 -200 -73 -158 -90 -198 -90 -210 0 -22 34 -35 92
-34 95 2 98 4 143 114 l41 100 82 3 82 3 0 -257 c0 -142 3 -255 6 -252 3 3 5
117 4 252 l-1 246 91 0 c59 0 90 -4 90 -11 0 -18 80 -183 93 -191 23 -15 139
-9 158 8 20 18 21 16 -43 153 -26 57 -48 105 -48 107 0 3 -29 64 -64 137 -35
73 -92 193 -126 267 -35 74 -81 171 -103 215 -30 58 -43 98 -47 145 l-7 65 -1
-67z m218 -540 c118 -253 216 -463 218 -467 1 -3 -33 -5 -75 -3 l-78 3 -45
105 -44 104 -187 0 -187 0 -41 -102 -40 -103 -80 -5 c-45 -3 -81 -3 -81 0 0
10 415 929 420 929 3 0 102 -207 220 -461z"/>
<path d="M1050 1338 c0 -7 -25 -73 -55 -145 l-54 -133 130 0 c71 0 129 1 129
3 0 1 -29 62 -65 135 -36 74 -65 138 -65 143 0 5 -4 9 -10 9 -5 0 -10 -6 -10
-12z m10 -156 l0 -108 -40 4 c-22 2 -40 7 -40 11 -1 8 74 201 77 201 2 0 3
-48 3 -108z m85 -59 c14 -32 14 -32 -20 -39 -19 -3 -38 -3 -44 0 -6 4 -10 44
-10 93 l0 87 30 -54 c17 -30 37 -69 44 -87z"/>
<path d="M1740 1538 c0 -7 -23 -188 -50 -403 -49 -385 -54 -433 -45 -424 3 4
44 301 76 564 5 44 12 94 14 110 11 63 18 165 11 165 -3 0 -6 -6 -6 -12z"/>
<path d="M715 315 c-3 -8 -7 -22 -10 -31 -3 -9 -8 -14 -12 -11 -3 4 -18 -1
-34 -10 -19 -11 -32 -13 -41 -7 -7 6 -47 11 -89 12 -58 2 -79 -1 -89 -12 -11
-14 -15 -14 -33 -1 -26 18 -108 20 -125 3 -7 -7 -12 -23 -13 -38 0 -19 -5 -13
-20 26 -25 66 -59 85 -87 49 -11 -13 -31 -58 -46 -100 -22 -61 -25 -79 -15
-91 17 -21 52 -13 64 14 13 29 30 28 57 -3 16 -19 31 -25 63 -25 22 0 46 5 52
11 8 8 17 7 32 -3 17 -10 25 -10 41 -1 16 11 18 10 13 -3 -9 -25 26 -54 66
-54 34 1 81 28 81 47 0 4 90 7 200 6 223 -1 204 -8 213 70 2 16 7 32 13 35 5
4 15 14 22 23 10 14 10 20 -3 33 -19 18 -76 21 -92 5 -8 -8 -17 -8 -31 0 -28
15 -99 14 -105 -1 -3 -7 -6 1 -6 18 -1 16 -6 35 -13 42 -17 17 -48 15 -53 -3z
m45 -105 c0 -89 -2 -100 -17 -100 -16 0 -18 11 -18 100 0 89 2 100 18 100 15
0 17 -11 17 -100z m-520 -2 c18 -46 34 -86 37 -90 2 -5 -5 -8 -15 -8 -13 0
-22 9 -26 25 -5 21 -12 25 -41 25 -29 0 -37 -5 -45 -25 -5 -14 -17 -25 -26
-25 -8 0 -14 4 -12 8 2 4 16 45 33 90 39 109 53 109 95 0z m157 30 c8 -6 13
-33 13 -69 0 -50 -3 -59 -17 -59 -15 0 -18 8 -15 55 3 43 0 56 -12 61 -31 12
-49 -16 -44 -68 4 -42 3 -48 -13 -48 -17 0 -19 8 -19 69 l0 68 47 1 c26 1 53
-4 60 -10z m153 -74 c0 -90 -8 -104 -62 -104 -32 0 -66 24 -49 35 7 4 18 2 24
-4 17 -17 45 -13 57 9 10 18 8 19 -20 13 -42 -8 -70 19 -70 65 0 50 23 71 76
70 l44 -1 0 -83z m62 29 c3 -50 6 -58 23 -58 17 0 20 8 23 58 2 46 6 57 20 57
14 0 17 -11 17 -69 l0 -69 -44 0 c-25 -1 -51 4 -58 10 -19 16 -18 128 2 128
10 0 15 -15 17 -57z m276 45 c5 -7 12 -38 14 -70 l3 -56 -50 -1 c-50 0 -75 11
-75 35 0 22 30 44 61 44 19 0 29 5 29 15 0 23 -31 31 -45 12 -12 -17 -45 -24
-45 -10 0 34 85 58 108 31z m122 -4 c0 -8 -6 -14 -12 -13 -34 4 -38 -2 -38
-56 0 -42 -3 -55 -15 -55 -12 0 -15 14 -15 69 l0 69 40 0 c29 1 40 -3 40 -14z"/>
<path d="M178 215 l-16 -35 29 0 c34 0 33 -2 16 39 l-13 31 -16 -35z"/>
<path d="M472 218 c-30 -30 -3 -98 33 -84 12 4 15 17 13 48 -3 45 -22 60 -46
36z"/>
<path d="M814 159 c-10 -17 12 -32 35 -24 29 9 27 35 -3 35 -14 0 -28 -5 -32
-11z"/>
<path d="M1958 319 c-10 -5 -18 -21 -18 -35 0 -22 -3 -24 -22 -18 -30 10 -82
6 -86 -6 -7 -19 -24 -10 -19 9 6 25 -26 56 -49 47 -9 -3 -18 -15 -21 -26 -4
-15 -14 -20 -37 -20 -18 0 -38 -6 -45 -12 -11 -10 -14 -10 -18 0 -5 14 -67 16
-92 2 -14 -7 -24 -4 -41 15 -28 30 -55 32 -71 7 -10 -15 -21 -18 -60 -14 -31
3 -54 0 -64 -8 -12 -10 -15 -9 -15 5 0 10 -7 26 -16 36 -25 28 -70 7 -85 -39
-6 -20 -16 -41 -22 -47 -7 -7 -8 -7 -4 0 3 6 -4 29 -16 50 -16 28 -30 41 -48
43 -41 5 -50 -17 -47 -113 2 -71 6 -90 20 -99 13 -8 23 -8 39 2 16 10 24 11
35 1 11 -9 20 -9 40 0 20 9 30 9 40 0 11 -9 21 -9 38 -1 14 6 28 7 37 1 19
-12 116 -11 124 1 4 6 13 7 23 1 29 -15 250 -10 263 6 10 11 15 11 30 -3 16
-14 24 -15 44 -6 16 7 26 8 30 1 8 -12 166 -10 183 3 8 7 12 42 12 107 0 115
-13 139 -62 110z m42 -109 c0 -89 -2 -100 -17 -100 -16 0 -18 11 -18 100 0 89
2 100 18 100 15 0 17 -11 17 -100z m-202 73 c2 -8 -5 -13 -17 -13 -12 0 -21 6
-21 16 0 18 31 15 38 -3z m-650 -51 c12 -32 22 -64 22 -72 0 -25 16 3 40 68
18 49 27 62 44 62 20 0 21 -5 21 -90 0 -82 -2 -90 -19 -90 -17 0 -18 6 -13 73
l5 72 -26 -72 c-35 -95 -51 -96 -86 -5 l-26 67 3 -68 c2 -58 0 -67 -15 -67
-16 0 -18 11 -18 90 0 87 1 90 23 90 18 0 26 -11 45 -58z m342 33 c0 -8 7 -15
15 -15 8 0 15 -4 15 -10 0 -5 -7 -10 -15 -10 -11 0 -15 -12 -15 -50 0 -38 4
-50 15 -50 8 0 15 -5 15 -11 0 -6 -12 -9 -27 -7 -27 3 -28 6 -31 61 -2 42 -7
57 -17 57 -8 0 -15 5 -15 10 0 6 7 10 16 10 10 0 14 6 10 15 -4 10 1 15 14 15
11 0 20 -7 20 -15z m-82 -27 c5 -7 12 -38 14 -70 l3 -56 -50 -1 c-50 0 -75 11
-75 35 0 22 30 44 61 44 19 0 29 5 29 15 0 23 -31 31 -45 12 -12 -17 -45 -24
-45 -10 0 34 85 58 108 31z m226 -4 c9 -8 16 -26 16 -40 0 -22 -4 -24 -45 -24
-47 0 -56 -9 -29 -31 12 -10 20 -10 35 -1 25 16 45 6 28 -14 -16 -19 -68 -18
-91 3 -23 20 -24 80 -1 105 20 22 66 24 87 2z m116 1 c0 -7 -10 -15 -22 -17
-21 -3 -23 -9 -23 -56 0 -43 -3 -52 -17 -52 -15 0 -18 10 -18 69 l0 69 40 0
c27 1 40 -4 40 -13z m42 -55 c3 -61 1 -70 -14 -70 -15 0 -18 10 -18 70 0 54 3
70 14 70 11 0 15 -18 18 -70z m124 62 c6 -4 13 -35 16 -68 l4 -62 -40 0 c-58
-2 -76 6 -76 32 0 31 19 46 57 46 31 0 33 2 23 20 -13 24 -38 26 -46 5 -8 -19
-34 -20 -34 0 0 27 67 47 96 27z"/>
<path d="M1334 159 c-10 -17 12 -32 35 -24 29 9 27 35 -3 35 -14 0 -28 -5 -32
-11z"/>
<path d="M1572 218 c-20 -20 -14 -28 19 -28 24 0 30 4 27 17 -4 22 -29 28 -46
11z"/>
<path d="M1854 159 c-9 -15 10 -31 29 -24 8 4 18 13 21 21 7 17 -39 20 -50 3z"/>
</g>
</svg>
